<?xml version="1.0" standalone="no"?>
<!DOCTYPE svg PUBLIC "-//W3C//DTD SVG 20010904//EN"
 "http://www.w3.org/TR/2001/REC-SVG-20010904/DTD/svg10.dtd">
<svg version="1.0" xmlns="http://www.w3.org/2000/svg"
 width="260.000000pt" height="260.000000pt" viewBox="0 0 260.000000 260.000000"
 preserveAspectRatio="xMidYMid meet">
<metadata>
Created by potrace 1.11, written by Peter Selinger 2001-2013
</metadata>
<g transform="translate(0.000000,260.000000) scale(0.100000,-0.100000)"
fill="#000000" stroke="none">
<path d="M648 2023 c-57 -62 -83 -155 -82 -303 1 -232 94 -375 185 -284 90 90
106 393 29 544 -37 73 -88 89 -132 43z"/>
<path d="M1978 2039 c-30 -17 -68 -93 -83 -165 -37 -176 1 -390 81 -453 99
-78 199 169 164 404 -24 163 -93 255 -162 214z"/>
<path d="M2483 1233 c-13 -2 -23 -9 -23 -14 0 -5 10 -9 23 -9 12 0 29 -5 37
-10 33 -23 -169 -173 -335 -251 -82 -39 -324 -123 -331 -116 -2 2 1 19 7 38 5
19 10 71 11 116 0 102 -33 188 -77 199 -79 20 -256 -149 -346 -331 -42 -84
-42 -84 -86 -91 -25 -3 -104 -3 -176 1 -362 19 -672 100 -912 238 -89 50 -195
129 -192 141 2 5 19 15 38 22 l34 11 -37 8 c-20 4 -46 4 -58 0 -26 -8 -60 -61
-60 -94 0 -23 1 -22 23 9 12 19 27 35 32 37 6 1 26 -25 45 -60 47 -84 204
-240 303 -301 218 -136 494 -211 817 -223 588 -22 1112 210 1294 574 28 57 41
60 69 15 13 -21 17 -23 17 -9 0 37 -31 85 -62 96 -17 6 -31 10 -32 10 -1 -1
-11 -4 -23 -6z"/>
</g>
</svg>
